<svg class="railroad-diagram" height="251" viewBox="0 0 1314.0 251" width="1314.0" xmlns="http://www.w3.org/2000/svg" xmlns:xlink="http://www.w3.org/1999/xlink">
<g>
<style>/* <![CDATA[ */
	svg.railroad-diagram {
		background-color: white;
	}
	svg.railroad-diagram path {
		stroke-width:2;
		stroke:black;
		fill: rgba(255, 255, 255, 1.0);
	}
	svg.railroad-diagram text {
		font:bold 14px monospace;
		text-anchor:middle;
	}
	svg.railroad-diagram text.arrow {
		font:bold 24px monospace;
		text-anchor:middle;
	}
	svg.railroad-diagram text.label{
		text-anchor:start;
	}
	svg.railroad-diagram text.comment{
		font:italic 12px monospace;
	}
	svg.railroad-diagram rect{
		stroke-width:2;
		stroke:black;
		fill:white;
	}

/* ]]> */
</style><g>
<path d="M20 21v20m10 -20v20m-10 -10h20"></path></g><path d="M40 31h10"></path><g class="non-terminal">
<path d="M50 31h0"></path><path d="M104.0 31h0.0"></path><rect height="22" width="54.0" x="50" y="20"></rect><text x="77.0" y="35">mcix</text></g><path d="M104.0 31h10"></path><g>
<path d="M114.0 31h0"></path><path d="M1274.0 31h0.0"></path><path d="M114.0 31h20"></path><g class="terminal">
<path d="M134.0 31h0"></path><path d="M188.0 31h1066.0"></path><rect height="22" rx="10" ry="10" width="54.0" x="134.0" y="20"></rect><text x="161.0" y="35">help</text></g><path d="M1254.0 31h20"></path><path d="M114.0 31a10 10 0 0 1 10 10v10a10 10 0 0 0 10 10"></path><g>
<path d="M134.0 61h0"></path><path d="M1254.0 61h0.0"></path><g class="non-terminal">
<path d="M134.0 61h0"></path><path d="M230.5 61h0.0"></path><rect height="22" width="96.5" x="134.0" y="50"></rect><text x="182.25" y="65">datastage</text></g><path d="M230.5 61h10"></path><g>
<path d="M240.5 61h0"></path><path d="M1254.0 61h0.0"></path><path d="M240.5 61h20"></path><g class="terminal">
<path d="M260.5 61h0"></path><path d="M314.5 61h919.5"></path><rect height="22" rx="10" ry="10" width="54.0" x="260.5" y="50"></rect><text x="287.5" y="65">help</text></g><path d="M1234.0 61h20"></path><path d="M240.5 61a10 10 0 0 1 10 10v10a10 10 0 0 0 10 10"></path><g>
<path d="M260.5 91h0"></path><path d="M1234.0 91h0.0"></path><g class="non-terminal">
<path d="M260.5 91h0"></path><path d="M340.0 91h0.0"></path><rect height="22" width="79.5" x="260.5" y="80"></rect><text x="300.25" y="95">compile</text></g><path d="M340.0 91h10"></path><g>
<path d="M350.0 91h0"></path><path d="M1234.0 91h0.0"></path><path d="M350.0 91h20"></path><g class="terminal">
<path d="M370.0 91h0"></path><path d="M424.0 91h790.0"></path><rect height="22" rx="10" ry="10" width="54.0" x="370.0" y="80"></rect><text x="397.0" y="95">help</text></g><path d="M1214.0 91h20"></path><path d="M350.0 91a10 10 0 0 1 10 10v19a10 10 0 0 0 10 10"></path><g>
<path d="M370.0 130h0"></path><path d="M1214.0 130h0.0"></path><g>
<path d="M370.0 130h0"></path><path d="M644.5 130h0.0"></path><path d="M400.0 130h10"></path><g>
<path d="M410.0 130h0"></path><path d="M614.5 130h0.0"></path><g class="non-terminal">
<path d="M410.0 130h0"></path><path d="M498.0 130h0.0"></path><rect height="22" width="88.0" x="410.0" y="119"></rect><text x="454.0" y="134">-api-key</text></g><path d="M498.0 130h10"></path><path d="M508.0 130h10"></path><g class="terminal">
<path d="M518.0 130h0"></path><path d="M614.5 130h0.0"></path><rect height="22" rx="10" ry="10" width="96.5" x="518.0" y="119"></rect><text x="566.25" y="134">{api-key}</text></g></g><path d="M614.5 130h10"></path><path d="M400.0 130v20a10 10 0 0 0 10 10"></path><g>
<path d="M410.0 160h0"></path><path d="M546.5 160h68.0"></path><g class="non-terminal">
<path d="M410.0 160h0"></path><path d="M464.0 160h0.0"></path><rect height="22" width="54.0" x="410.0" y="149"></rect><text x="437.0" y="164">-url</text></g><path d="M464.0 160h10"></path><path d="M474.0 160h10"></path><g class="terminal">
<path d="M484.0 160h0"></path><path d="M546.5 160h0.0"></path><rect height="22" rx="10" ry="10" width="62.5" x="484.0" y="149"></rect><text x="515.25" y="164">{URL}</text></g></g><path d="M614.5 160a10 10 0 0 0 10 -10v-10"></path><path d="M400.0 130v50a10 10 0 0 0 10 10"></path><g>
<path d="M410.0 190h0"></path><path d="M563.5 190h51.0"></path><g class="non-terminal">
<path d="M410.0 190h0"></path><path d="M472.5 190h0.0"></path><rect height="22" width="62.5" x="410.0" y="179"></rect><text x="441.25" y="194">-user</text></g><path d="M472.5 190h10"></path><path d="M482.5 190h10"></path><g class="terminal">
<path d="M492.5 190h0"></path><path d="M563.5 190h0.0"></path><rect height="22" rx="10" ry="10" width="71.0" x="492.5" y="179"></rect><text x="528.0" y="194">{user}</text></g></g><path d="M614.5 190a10 10 0 0 0 10 -10v-40"></path><path d="M400.0 130v80a10 10 0 0 0 10 10"></path><g>
<path d="M410.0 220h0"></path><path d="M614.5 220h0.0"></path><g class="non-terminal">
<path d="M410.0 220h0"></path><path d="M489.5 220h0.0"></path><rect height="22" width="79.5" x="410.0" y="209"></rect><text x="449.75" y="224">-report</text></g><path d="M489.5 220h10"></path><path d="M499.5 220h10"></path><g class="terminal">
<path d="M509.5 220h0"></path><path d="M614.5 220h0.0"></path><rect height="22" rx="10" ry="10" width="105.0" x="509.5" y="209"></rect><text x="562.0" y="224">{filename}</text></g></g><path d="M614.5 220a10 10 0 0 0 10 -10v-70"></path><g class="diagram-text">
<title>take all branches, once each, in any order</title><path class="diagram-text" d="M 400.0 120 h -26 a 4 4 0 0 0 -4 4 v 12 a 4 4 0 0 0 4 4 h 26 z"></path><text class="diagram-text" x="385.0" y="134">all</text><path class="diagram-text" d="M 624.5 120 h 16 a 4 4 0 0 1 4 4 v 12 a 4 4 0 0 1 -4 4 h -16 z"></path><text class="diagram-arrow" x="634.5" y="134">↺</text></g></g><path d="M644.5 130h10"></path><g>
<path d="M654.5 130h0"></path><path d="M941.5 130h0.0"></path><path d="M654.5 130h20"></path><g>
<path d="M674.5 130h0"></path><path d="M921.5 130h0.0"></path><g class="non-terminal">
<path d="M674.5 130h0"></path><path d="M762.5 130h0.0"></path><rect height="22" width="88.0" x="674.5" y="119"></rect><text x="718.5" y="134">-project</text></g><path d="M762.5 130h10"></path><path d="M772.5 130h10"></path><g class="terminal">
<path d="M782.5 130h0"></path><path d="M921.5 130h0.0"></path><rect height="22" rx="10" ry="10" width="139.0" x="782.5" y="119"></rect><text x="852.0" y="134">{project-name}</text></g></g><path d="M921.5 130h20"></path><path d="M654.5 130a10 10 0 0 1 10 10v10a10 10 0 0 0 10 10"></path><g>
<path d="M674.5 160h0"></path><path d="M921.5 160h0.0"></path><g class="non-terminal">
<path d="M674.5 160h0"></path><path d="M779.5 160h0.0"></path><rect height="22" width="105.0" x="674.5" y="149"></rect><text x="727.0" y="164">-proect-id</text></g><path d="M779.5 160h10"></path><path d="M789.5 160h10"></path><g class="terminal">
<path d="M799.5 160h0"></path><path d="M921.5 160h0.0"></path><rect height="22" rx="10" ry="10" width="122.0" x="799.5" y="149"></rect><text x="860.5" y="164">{project-id}</text></g></g><path d="M921.5 160a10 10 0 0 0 10 -10v-10a10 10 0 0 1 10 -10"></path></g><g>
<path d="M941.5 130h0"></path><path d="M1214.0 130h0.0"></path><path d="M941.5 130a10 10 0 0 0 10 -10v0a10 10 0 0 1 10 -10"></path><g>
<path d="M961.5 110h232.5"></path></g><path d="M1194.0 110a10 10 0 0 1 10 10v0a10 10 0 0 0 10 10"></path><path d="M941.5 130h20"></path><g class="non-terminal">
<path d="M961.5 130h0"></path><path d="M1194.0 130h0.0"></path><rect height="22" width="232.5" x="961.5" y="119"></rect><text x="1077.75" y="134">-include-job-in-test-name</text></g><path d="M1194.0 130h20"></path></g></g><path d="M1214.0 130a10 10 0 0 0 10 -10v-19a10 10 0 0 1 10 -10"></path></g></g><path d="M1234.0 91a10 10 0 0 0 10 -10v-10a10 10 0 0 1 10 -10"></path></g></g><path d="M1254.0 61a10 10 0 0 0 10 -10v-10a10 10 0 0 1 10 -10"></path></g><path d="M 1274.0 31 h 20 m -10 -10 v 20 m 10 -20 v 20"></path></g></svg>