<svg class="railroad-diagram" height="182" viewBox="0 0 812.5 182" width="812.5" xmlns="http://www.w3.org/2000/svg" xmlns:xlink="http://www.w3.org/1999/xlink">
<g>
<style>/* <![CDATA[ */
	svg.railroad-diagram {
		background-color: white;
	}
	svg.railroad-diagram path {
		stroke-width:2;
		stroke:black;
		fill: rgba(255, 255, 255, 1.0);
	}
	svg.railroad-diagram text {
		font:bold 14px monospace;
		text-anchor:middle;
	}
	svg.railroad-diagram text.arrow {
		font:bold 24px monospace;
		text-anchor:middle;
	}
	svg.railroad-diagram text.label{
		text-anchor:start;
	}
	svg.railroad-diagram text.comment{
		font:italic 12px monospace;
	}
	svg.railroad-diagram rect{
		stroke-width:2;
		stroke:black;
		fill:white;
	}

/* ]]> */
</style><g>
<path d="M20 21v20m10 -20v20m-10 -10h20"></path></g><path d="M40 31h10"></path><g class="non-terminal">
<path d="M50 31h0"></path><path d="M104.0 31h0.0"></path><rect height="22" width="54.0" x="50" y="20"></rect><text x="77.0" y="35">mcix</text></g><path d="M104.0 31h10"></path><g>
<path d="M114.0 31h0"></path><path d="M772.5 31h0.0"></path><path d="M114.0 31h20"></path><g class="terminal">
<path d="M134.0 31h0"></path><path d="M188.0 31h564.5"></path><rect height="22" rx="10" ry="10" width="54.0" x="134.0" y="20"></rect><text x="161.0" y="35">help</text></g><path d="M752.5 31h20"></path><path d="M114.0 31a10 10 0 0 1 10 10v10a10 10 0 0 0 10 10"></path><g>
<path d="M134.0 61h0"></path><path d="M752.5 61h0.0"></path><g class="non-terminal">
<path d="M134.0 61h0"></path><path d="M213.5 61h0.0"></path><rect height="22" width="79.5" x="134.0" y="50"></rect><text x="173.75" y="65">migrate</text></g><path d="M213.5 61h10"></path><g>
<path d="M223.5 61h0"></path><path d="M752.5 61h0.0"></path><path d="M223.5 61h20"></path><g class="terminal">
<path d="M243.5 61h0"></path><path d="M297.5 61h435.0"></path><rect height="22" rx="10" ry="10" width="54.0" x="243.5" y="50"></rect><text x="270.5" y="65">help</text></g><path d="M732.5 61h20"></path><path d="M223.5 61a10 10 0 0 1 10 10v10a10 10 0 0 0 10 10"></path><g>
<path d="M243.5 91h0"></path><path d="M732.5 91h0.0"></path><g class="non-terminal">
<path d="M243.5 91h0"></path><path d="M340.0 91h0.0"></path><rect height="22" width="96.5" x="243.5" y="80"></rect><text x="291.75" y="95">unit-test</text></g><path d="M340.0 91h10"></path><g>
<path d="M350.0 91h0"></path><path d="M732.5 91h0.0"></path><path d="M350.0 91h20"></path><g class="terminal">
<path d="M370.0 91h0"></path><path d="M424.0 91h288.5"></path><rect height="22" rx="10" ry="10" width="54.0" x="370.0" y="80"></rect><text x="397.0" y="95">help</text></g><path d="M712.5 91h20"></path><path d="M350.0 91a10 10 0 0 1 10 10v10a10 10 0 0 0 10 10"></path><g>
<path d="M370.0 121h0"></path><path d="M712.5 121h0.0"></path><g>
<path d="M370.0 121h0"></path><path d="M712.5 121h0.0"></path><path d="M400.0 121h10"></path><g>
<path d="M410.0 121h0"></path><path d="M682.5 121h0.0"></path><g class="non-terminal">
<path d="M410.0 121h0"></path><path d="M532.0 121h0.0"></path><rect height="22" width="122.0" x="410.0" y="110"></rect><text x="471.0" y="125">-export-path</text></g><path d="M532.0 121h10"></path><path d="M542.0 121h10"></path><g class="terminal">
<path d="M552.0 121h0"></path><path d="M682.5 121h0.0"></path><rect height="22" rx="10" ry="10" width="130.5" x="552.0" y="110"></rect><text x="617.25" y="125">{export-path}</text></g></g><path d="M682.5 121h10"></path><path d="M400.0 121v20a10 10 0 0 0 10 10"></path><g>
<path d="M410.0 151h0"></path><path d="M665.5 151h17.0"></path><g class="non-terminal">
<path d="M410.0 151h0"></path><path d="M523.5 151h0.0"></path><rect height="22" width="113.5" x="410.0" y="140"></rect><text x="466.75" y="155">-specs-path</text></g><path d="M523.5 151h10"></path><path d="M533.5 151h10"></path><g class="terminal">
<path d="M543.5 151h0"></path><path d="M665.5 151h0.0"></path><rect height="22" rx="10" ry="10" width="122.0" x="543.5" y="140"></rect><text x="604.5" y="155">{specs-path}</text></g></g><path d="M682.5 151a10 10 0 0 0 10 -10v-10"></path><g class="diagram-text">
<title>take all branches, once each, in any order</title><path class="diagram-text" d="M 400.0 111 h -26 a 4 4 0 0 0 -4 4 v 12 a 4 4 0 0 0 4 4 h 26 z"></path><text class="diagram-text" x="385.0" y="125">all</text><path class="diagram-text" d="M 692.5 111 h 16 a 4 4 0 0 1 4 4 v 12 a 4 4 0 0 1 -4 4 h -16 z"></path><text class="diagram-arrow" x="702.5" y="125">↺</text></g></g></g><path d="M712.5 121a10 10 0 0 0 10 -10v-10a10 10 0 0 1 10 -10"></path></g></g><path d="M732.5 91a10 10 0 0 0 10 -10v-10a10 10 0 0 1 10 -10"></path></g></g><path d="M752.5 61a10 10 0 0 0 10 -10v-10a10 10 0 0 1 10 -10"></path></g><path d="M 772.5 31 h 20 m -10 -10 v 20 m 10 -20 v 20"></path></g></svg>