<svg class="railroad-diagram" height="132" viewBox="0 0 482.5 132" width="482.5" xmlns="http://www.w3.org/2000/svg" xmlns:xlink="http://www.w3.org/1999/xlink">
<g>
<style>/* <![CDATA[ */
	svg.railroad-diagram {
		background-color: white;
	}
	svg.railroad-diagram path {
		stroke-width:2;
		stroke:black;
		fill: rgba(255, 255, 255, 1.0);
	}
	svg.railroad-diagram text {
		font:bold 14px monospace;
		text-anchor:middle;
	}
	svg.railroad-diagram text.arrow {
		font:bold 24px monospace;
		text-anchor:middle;
	}
	svg.railroad-diagram text.label{
		text-anchor:start;
	}
	svg.railroad-diagram text.comment{
		font:italic 12px monospace;
	}
	svg.railroad-diagram rect{
		stroke-width:2;
		stroke:black;
		fill:white;
	}

/* ]]> */
</style><g>
<path d="M20 21v20m10 -20v20m-10 -10h20"></path></g><path d="M40 31h10"></path><g>
<path d="M50 31h0"></path><path d="M50 31h10"></path><g>
<path d="M60 31h0"></path><path d="M330.0 31h92.5"></path><g class="non-terminal">
<path d="M60 31h0"></path><path d="M114.0 31h0.0"></path><rect height="22" width="54.0" x="60" y="20"></rect><text x="87.0" y="35">mcix</text></g><path d="M114.0 31h10"></path><path d="M124.0 31h10"></path><g class="non-terminal">
<path d="M134.0 31h0"></path><path d="M213.5 31h0.0"></path><rect height="22" width="79.5" x="134.0" y="20"></rect><text x="173.75" y="35">migrate</text></g><path d="M213.5 31h10"></path><path d="M223.5 31h10"></path><g class="non-terminal">
<path d="M233.5 31h0"></path><path d="M330.0 31h0.0"></path><rect height="22" width="96.5" x="233.5" y="20"></rect><text x="281.75" y="35">unit-test</text></g></g><path d="M422.5 31a10 10 0 0 1 10 10v0a10 10 0 0 1 -10 10h-362.5a10 10 0 0 0 -10 10v0a10 10 0 0 0 10 10"></path><g>
<path d="M60 71h0"></path><path d="M402.5 71h20.0"></path><g>
<path d="M60 71h0"></path><path d="M402.5 71h0.0"></path><path d="M90 71h10"></path><g>
<path d="M100 71h0"></path><path d="M372.5 71h0.0"></path><g class="non-terminal">
<path d="M100 71h0"></path><path d="M222.0 71h0.0"></path><rect height="22" width="122.0" x="100" y="60"></rect><text x="161.0" y="75">-export-path</text></g><path d="M222.0 71h10"></path><path d="M232.0 71h10"></path><g class="terminal">
<path d="M242.0 71h0"></path><path d="M372.5 71h0.0"></path><rect height="22" rx="10" ry="10" width="130.5" x="242.0" y="60"></rect><text x="307.25" y="75">{export-path}</text></g></g><path d="M372.5 71h10"></path><path d="M90 71v20a10 10 0 0 0 10 10"></path><g>
<path d="M100 101h0"></path><path d="M355.5 101h17.0"></path><g class="non-terminal">
<path d="M100 101h0"></path><path d="M213.5 101h0.0"></path><rect height="22" width="113.5" x="100" y="90"></rect><text x="156.75" y="105">-specs-path</text></g><path d="M213.5 101h10"></path><path d="M223.5 101h10"></path><g class="terminal">
<path d="M233.5 101h0"></path><path d="M355.5 101h0.0"></path><rect height="22" rx="10" ry="10" width="122.0" x="233.5" y="90"></rect><text x="294.5" y="105">{specs-path}</text></g></g><path d="M372.5 101a10 10 0 0 0 10 -10v-10"></path><g class="diagram-text">
<title>take all branches, once each, in any order</title><path class="diagram-text" d="M 90 61 h -26 a 4 4 0 0 0 -4 4 v 12 a 4 4 0 0 0 4 4 h 26 z"></path><text class="diagram-text" x="75" y="75">all</text><path class="diagram-text" d="M 382.5 61 h 16 a 4 4 0 0 1 4 4 v 12 a 4 4 0 0 1 -4 4 h -16 z"></path><text class="diagram-arrow" x="392.5" y="75">↺</text></g></g></g><path d="M422.5 71h10"></path><path d="M432.5 71h0.0"></path></g><path d="M432.5 71h10"></path><path d="M 442.5 71 h 20 m -10 -10 v 20 m 10 -20 v 20"></path></g></svg>